<?xml version="1.0" standalone="no"?>
<!DOCTYPE svg PUBLIC "-//W3C//DTD SVG 20010904//EN"
 "http://www.w3.org/TR/2001/REC-SVG-20010904/DTD/svg10.dtd">
<svg version="1.0" xmlns="http://www.w3.org/2000/svg"
 width="150.000000pt" height="150.000000pt" viewBox="0 0 150.000000 150.000000"
 preserveAspectRatio="xMidYMid meet">

<g transform="translate(0.000000,150.000000) scale(0.100000,-0.100000)"
fill="#000000" stroke="none">
<path d="M536 823 c-3 -3 -6 -15 -6 -25 0 -12 -7 -18 -21 -18 -27 0 -19 -24 9
-28 20 -3 22 -9 22 -63 0 -33 4 -59 10 -59 6 0 10 26 10 59 0 54 2 60 23 63
27 4 26 22 -3 26 -12 2 -20 11 -20 22 0 20 -13 33 -24 23z"/>
<path d="M976 823 c-3 -3 -6 -15 -6 -25 0 -12 -7 -18 -21 -18 -27 0 -19 -24 9
-28 20 -3 22 -9 22 -63 0 -33 4 -59 10 -59 6 0 10 26 10 59 0 54 2 60 23 63
27 4 26 22 -3 26 -12 2 -20 11 -20 22 0 20 -13 33 -24 23z"/>
<path d="M75 755 c-54 -53 -14 -143 53 -119 15 5 28 18 30 28 3 15 1 16 -18 6
-32 -17 -70 -5 -70 24 0 33 33 60 65 52 18 -5 25 -2 25 8 0 12 -28 25 -53 26
-4 0 -19 -11 -32 -25z"/>
<path d="M229 770 c-29 -17 -43 -65 -27 -96 20 -42 43 -52 75 -34 31 18 43 53
31 94 -11 44 -42 57 -79 36z m56 -59 c0 -37 -22 -58 -49 -48 -19 8 -22 57 -4
75 7 7 22 11 33 10 16 -2 20 -11 20 -37z"/>
<path d="M357 774 c-12 -13 -8 -146 4 -142 7 2 13 18 14 36 3 38 30 82 50 82
11 0 15 -12 15 -47 0 -47 13 -83 25 -71 3 3 3 35 -1 71 -5 54 -10 68 -26 73
-12 4 -26 0 -36 -10 -14 -13 -17 -13 -26 0 -7 8 -15 12 -19 8z"/>
<path d="M673 770 c-27 -11 -43 -40 -43 -78 0 -40 23 -57 80 -58 l47 -1 -5 66
c-6 81 -21 94 -79 71z m50 -57 c5 -47 2 -53 -28 -53 -35 0 -51 34 -30 66 24
38 52 31 58 -13z"/>
<path d="M815 755 c-54 -53 -14 -143 53 -119 15 5 28 18 30 28 3 15 1 16 -18
6 -32 -17 -70 -5 -70 24 0 33 33 60 65 52 18 -5 25 -2 25 8 0 12 -28 25 -53
26 -4 0 -19 -11 -32 -25z"/>
<path d="M1177 773 c-10 -10 -8 -106 3 -123 5 -9 27 -15 54 -16 l44 -2 4 67
c4 71 2 85 -13 76 -5 -4 -9 -31 -9 -61 0 -53 0 -54 -29 -54 -34 0 -44 20 -40
75 3 35 -2 50 -14 38z"/>
<path d="M1365 765 c-22 -8 -41 -15 -43 -15 -2 0 -2 -10 0 -22 2 -16 11 -24
30 -26 35 -4 57 -29 34 -38 -9 -4 -30 -4 -46 0 -22 4 -30 2 -30 -9 0 -19 62
-30 90 -15 31 17 22 52 -17 70 -18 8 -33 18 -33 22 0 13 41 20 55 8 16 -13 28
1 19 24 -7 19 -8 19 -59 1z"/>
</g>
</svg>
